<svg xmlns:xlink="http://www.w3.org/1999/xlink" data-v-113eb27a="" data-v-9addc858="" aria-hidden="true" focusable="false" data-prefix="far" data-icon="circle-info" role="img" xmlns="http://www.w3.org/2000/svg" viewBox="0 0 512 512" data-html2canvas-ignore="" class="info-icon form__info-tooltip svg-inline--fa fa-circle-info fa-w-16 has-tooltip" data-original-title="null" width="512"  height="512" ><path data-v-113eb27a="" fill="#DADADA" d="M256 48a208 208 0 1 1 0 416 208 208 0 1 1 0-416zm0 464A256 256 0 1 0 256 0a256 256 0 1 0 0 512zM216 336c-13.3 0-24 10.7-24 24s10.7 24 24 24h80c13.3 0 24-10.7 24-24s-10.7-24-24-24h-8V248c0-13.3-10.7-24-24-24H216c-13.3 0-24 10.7-24 24s10.7 24 24 24h24v64H216zm40-144a32 32 0 1 0 0-64 32 32 0 1 0 0 64z" class=""></path></svg>