<svg xmlns:xlink="http://www.w3.org/1999/xlink" data-v-40b59e43="" aria-hidden="true" focusable="false" data-prefix="fal" data-icon="clock" role="img" xmlns="http://www.w3.org/2000/svg" viewBox="0 0 512 512" class="svg-inline--fa fa-clock fa-w-16" width="512"  height="512" ><path data-v-40b59e43="" fill="#0E0E0E" d="M480 256A224 224 0 1 1 32 256a224 224 0 1 1 448 0zM0 256a256 256 0 1 0 512 0A256 256 0 1 0 0 256zM240 112V256c0 5.3 2.7 10.3 7.1 13.3l96 64c7.4 4.9 17.3 2.9 22.2-4.4s2.9-17.3-4.4-22.2L272 247.4V112c0-8.8-7.2-16-16-16s-16 7.2-16 16z" class=""></path></svg>