<svg xmlns:xlink="http://www.w3.org/1999/xlink" data-v-f449af3a="" xmlns="http://www.w3.org/2000/svg" width="20" height="20" viewBox="0 0 20 20"><path data-v-f449af3a="" fill="#0E0E0E" fill-rule="evenodd" d="M11.414 10l7.778-7.778c.39-.39.39-1.024 0-1.414-.39-.39-1.023-.39-1.414 0L10 8.586 2.222.808c-.39-.39-1.024-.39-1.414 0-.39.39-.39 1.023 0 1.414L8.586 10 .808 17.778c-.39.39-.39 1.024 0 1.414.39.39 1.023.39 1.414 0L10 11.414l7.778 7.778c.39.39 1.024.39 1.414 0 .39-.39.39-1.023 0-1.414L11.414 10z" fill-opacity="0.6"></path></svg>