<svg xmlns:xlink="http://www.w3.org/1999/xlink" data-v-32ea5cac="" aria-hidden="true" focusable="false" data-prefix="fal" data-icon="file" role="img" xmlns="http://www.w3.org/2000/svg" viewBox="0 0 384 512" class="upload-file__text-icon svg-inline--fa fa-file fa-w-12" width="384"  height="512" ><path data-v-32ea5cac="" fill="#A6A6A6" d="M352 448V192H240c-26.5 0-48-21.5-48-48V32H64C46.3 32 32 46.3 32 64V448c0 17.7 14.3 32 32 32H320c17.7 0 32-14.3 32-32zm-.5-288c-.7-2.8-2.1-5.4-4.2-7.4L231.4 36.7c-2.1-2.1-4.6-3.5-7.4-4.2V144c0 8.8 7.2 16 16 16H351.5zM0 64C0 28.7 28.7 0 64 0H220.1c12.7 0 24.9 5.1 33.9 14.1L369.9 129.9c9 9 14.1 21.2 14.1 33.9V448c0 35.3-28.7 64-64 64H64c-35.3 0-64-28.7-64-64V64z" class=""></path></svg>