<svg xmlns:xlink="http://www.w3.org/1999/xlink" data-v-40b59e43="" aria-hidden="true" focusable="false" data-prefix="fal" data-icon="list-ul" role="img" xmlns="http://www.w3.org/2000/svg" viewBox="0 0 512 512" class="svg-inline--fa fa-list-ul fa-w-16" width="512"  height="512" ><path data-v-40b59e43="" fill="#0E0E0E" d="M64 64a32 32 0 1 0 0 64 32 32 0 1 0 0-64zM176 80c-8.8 0-16 7.2-16 16s7.2 16 16 16H496c8.8 0 16-7.2 16-16s-7.2-16-16-16H176zm0 160c-8.8 0-16 7.2-16 16s7.2 16 16 16H496c8.8 0 16-7.2 16-16s-7.2-16-16-16H176zm0 160c-8.8 0-16 7.2-16 16s7.2 16 16 16H496c8.8 0 16-7.2 16-16s-7.2-16-16-16H176zM96 256a32 32 0 1 0 -64 0 32 32 0 1 0 64 0zM64 384a32 32 0 1 0 0 64 32 32 0 1 0 0-64z" class=""></path></svg>