<svg class="field__input__toggle--invisible" width="22" height="19" viewBox="0 0 22 19" xmlns="http://www.w3.org/2000/svg">
  <path d="M15.443 3.17L18.326.287c.38-.382 1-.384 1.384.002.383.382.39.998.003 1.384l-17.04 17.04c-.38.38-.998.383-1.383-.003-.383-.382-.39-.998-.003-1.384L3.812 14.8c-.898-.845-1.775-1.86-2.63-3.04-.76-1.05-.76-2.47 0-3.52C4.194 4.08 7.467 2 11 2c1.53 0 3.01.39 4.443 1.17zm-9.34 9.34l1.535-1.535c-.09-.31-.138-.637-.138-.975 0-1.933 1.567-3.5 3.5-3.5.338 0 .666.048.975.138l1.533-1.534C12.756 4.718 11.904 4.5 11 4.5c-3.038 0-5.5 2.462-5.5 5.5 0 .904.218 1.757.604 2.51zm12.298-7.107c.824.803 1.63 1.75 2.418 2.837.76 1.05.76 2.47 0 3.52C17.806 15.92 14.533 18 11 18c-1.433 0-2.823-.342-4.17-1.027l1.943-1.943c.68.302 1.434.47 2.227.47 3.038 0 5.5-2.462 5.5-5.5 0-.793-.168-1.546-.47-2.227l2.37-2.37zm-8.04 8.04l4.082-4.082c.038.208.058.422.058.64 0 1.933-1.567 3.5-3.5 3.5-.218 0-.432-.02-.64-.058z" fill="#494949" fill-rule="evenodd" opacity=".3"/>
</svg>
