<svg width="22" height="19" viewBox="0 0 22 19" fill="none" xmlns="http://www.w3.org/2000/svg">
<g clip-path="url(#clip0)">
<path fill-rule="evenodd" clip-rule="evenodd" d="M0.597143 7.65616C3.75362 3.29807 7.18248 1.11902 10.8848 1.11902C14.5829 1.11902 18.0128 3.29807 21.1692 7.65616C21.9654 8.75616 21.9654 10.2438 21.1692 11.3438C18.0128 15.7019 14.5829 17.8809 10.8848 17.8809C7.18143 17.8809 3.75257 15.7019 0.597143 11.3438C-0.199048 10.2438 -0.199048 8.75616 0.597143 7.65616ZM10.8848 15.2619C14.0653 15.2619 16.6467 12.6826 16.6467 9.49997C16.6467 6.3173 14.0653 3.73807 10.8848 3.73807C7.7 3.73807 5.12286 6.3173 5.12286 9.49997C5.12286 12.6826 7.7 15.2619 10.8848 15.2619ZM10.8848 13.1666C8.85867 13.1666 7.2181 11.525 7.2181 9.49997C7.2181 7.47492 8.85867 5.8333 10.8848 5.8333C12.9088 5.8333 14.5514 7.47492 14.5514 9.49997C14.5514 11.525 12.9088 13.1666 10.8848 13.1666Z" fill="#1A73E8"/>
</g>
<defs>
<clipPath id="clip0">
<rect width="22" height="19" fill="white"/>
</clipPath>
</defs>
</svg>
