<svg width="25" height="24" viewBox="0 0 25 24" fill="none" xmlns="http://www.w3.org/2000/svg">
<circle cx="12.5" cy="12" r="12" fill="#F7F8F9"/>
<path d="M11.5699 11.0699V7.98848C11.5699 7.47492 11.9862 7.05859 12.4998 7.05859C13.0133 7.05859 13.4297 7.47492 13.4297 7.98848V11.0699H16.5111C17.0246 11.0699 17.4409 11.4862 17.4409 11.9998C17.4409 12.5133 17.0246 12.9297 16.5111 12.9297H13.4297V16.0111C13.4297 16.5246 13.0133 16.9409 12.4998 16.9409C11.9862 16.9409 11.5699 16.5246 11.5699 16.0111V12.9297H8.48848C7.97492 12.9297 7.55859 12.5133 7.55859 11.9998C7.55859 11.4862 7.97492 11.0699 8.48848 11.0699H11.5699Z" fill="#788699"/>
</svg>
