<svg width="240" height="240" viewBox="0 0 240 240" xmlns="http://www.w3.org/2000/svg" xmlns:xlink="http://www.w3.org/1999/xlink"><defs><circle id="a" cx="110" cy="110" r="110"/><path id="c" d="M0 0h155v175H0z"/><linearGradient x1="50%" y1="0%" x2="50%" y2="100%" id="e"><stop stop-color="#42AD57" offset="0%"/><stop stop-color="#99B74D" offset="100%"/></linearGradient><path d="M235.62 78.18c-.15-.6-.46-1.03-.83-1.03-.36 0-.67.42-.82 1.03-.61.15-1.03.46-1.03.83 0 .36.42.67 1.03.82.15.6.46 1.03.82 1.03.37 0 .68-.42.83-1.03.6-.15 1.03-.46 1.03-.82 0-.37-.42-.68-1.03-.83z" id="g"/><filter x="-161.8%" y="-161.8%" width="423.5%" height="423.5%" filterUnits="objectBoundingBox" id="f"><feOffset in="SourceAlpha" result="shadowOffsetOuter1"/><feGaussianBlur stdDeviation="2" in="shadowOffsetOuter1" result="shadowBlurOuter1"/><feColorMatrix values="0 0 0 0 1 0 0 0 0 1 0 0 0 0 1 0 0 0 0.8 0" in="shadowBlurOuter1"/></filter><path d="M11.13 74.55c0-.36-.42-.67-1.03-.82-.15-.6-.46-1.03-.83-1.03-.36 0-.67.42-.82 1.03-.61.15-1.03.46-1.03.82 0 .37.42.68 1.03.83.15.6.46 1.03.82 1.03.37 0 .68-.42.83-1.03.6-.15 1.03-.46 1.03-.83" id="i"/><filter x="-161.8%" y="-161.8%" width="423.5%" height="423.5%" filterUnits="objectBoundingBox" id="h"><feOffset in="SourceAlpha" result="shadowOffsetOuter1"/><feGaussianBlur stdDeviation="2" in="shadowOffsetOuter1" result="shadowBlurOuter1"/><feColorMatrix values="0 0 0 0 1 0 0 0 0 1 0 0 0 0 1 0 0 0 0.8 0" in="shadowBlurOuter1"/></filter><path d="M81.6 3.34c0-.36-.42-.68-1.03-.83-.15-.6-.46-1.03-.82-1.03-.36 0-.68.42-.83 1.03-.6.15-1.03.47-1.03.83s.42.67 1.03.82c.15.61.47 1.03.83 1.03s.67-.42.82-1.03c.61-.15 1.03-.46 1.03-.82" id="k"/><filter x="-161.8%" y="-161.8%" width="423.5%" height="423.5%" filterUnits="objectBoundingBox" id="j"><feOffset in="SourceAlpha" result="shadowOffsetOuter1"/><feGaussianBlur stdDeviation="2" in="shadowOffsetOuter1" result="shadowBlurOuter1"/><feColorMatrix values="0 0 0 0 1 0 0 0 0 1 0 0 0 0 1 0 0 0 0.8 0" in="shadowBlurOuter1"/></filter><path d="M200.82 31.33c0-.36-.42-.67-1.03-.83-.15-.6-.46-1.02-.83-1.02-.36 0-.67.42-.82 1.02-.61.16-1.03.47-1.03.83s.42.67 1.03.83c.15.6.46 1.03.82 1.03.37 0 .68-.43.83-1.03.6-.16 1.03-.47 1.03-.83" id="m"/><filter x="-161.8%" y="-161.8%" width="423.5%" height="423.5%" filterUnits="objectBoundingBox" id="l"><feOffset in="SourceAlpha" result="shadowOffsetOuter1"/><feGaussianBlur stdDeviation="2" in="shadowOffsetOuter1" result="shadowBlurOuter1"/><feColorMatrix values="0 0 0 0 1 0 0 0 0 1 0 0 0 0 1 0 0 0 0.8 0" in="shadowBlurOuter1"/></filter><path d="M40.06 29.3c0-.5-.59-.94-1.44-1.15-.21-.85-.65-1.44-1.16-1.44-.5 0-.94.59-1.15 1.44-.85.21-1.44.64-1.44 1.15 0 .51.59.95 1.44 1.16.21.85.65 1.44 1.15 1.44.51 0 .95-.6 1.16-1.44.85-.21 1.44-.65 1.44-1.16" id="o"/><filter x="-115.5%" y="-115.5%" width="331.1%" height="331.1%" filterUnits="objectBoundingBox" id="n"><feOffset in="SourceAlpha" result="shadowOffsetOuter1"/><feGaussianBlur stdDeviation="2" in="shadowOffsetOuter1" result="shadowBlurOuter1"/><feColorMatrix values="0 0 0 0 1 0 0 0 0 1 0 0 0 0 1 0 0 0 0.8 0" in="shadowBlurOuter1"/></filter><path d="M237.39 164.32c0-.37-.42-.68-1.03-.83-.15-.6-.46-1.03-.83-1.03-.36 0-.67.42-.82 1.03-.6.15-1.03.46-1.03.83 0 .36.42.67 1.03.82.15.61.46 1.03.82 1.03.37 0 .68-.42.83-1.03.6-.15 1.03-.46 1.03-.82" id="q"/><filter x="-161.8%" y="-161.8%" width="423.5%" height="423.5%" filterUnits="objectBoundingBox" id="p"><feOffset in="SourceAlpha" result="shadowOffsetOuter1"/><feGaussianBlur stdDeviation="2" in="shadowOffsetOuter1" result="shadowBlurOuter1"/><feColorMatrix values="0 0 0 0 1 0 0 0 0 1 0 0 0 0 1 0 0 0 0.8 0" in="shadowBlurOuter1"/></filter><path d="M53.41 73.07c0-.36-.42-.67-1.03-.82-.15-.61-.46-1.03-.82-1.03-.36 0-.68.42-.83 1.03-.6.15-1.03.46-1.03.82 0 .36.42.67 1.03.83.15.6.47 1.03.83 1.03s.67-.43.82-1.03c.61-.16 1.03-.47 1.03-.83" id="s"/><filter x="-161.8%" y="-161.8%" width="423.5%" height="423.5%" filterUnits="objectBoundingBox" id="r"><feOffset in="SourceAlpha" result="shadowOffsetOuter1"/><feGaussianBlur stdDeviation="2" in="shadowOffsetOuter1" result="shadowBlurOuter1"/><feColorMatrix values="0 0 0 0 1 0 0 0 0 1 0 0 0 0 1 0 0 0 0.8 0" in="shadowBlurOuter1"/></filter><path d="M97.18 44.14c0-.36-.42-.67-1.03-.83-.15-.6-.46-1.03-.82-1.03-.37 0-.68.43-.83 1.03-.6.16-1.03.47-1.03.83s.42.67 1.03.83c.15.6.46 1.02.83 1.02.36 0 .67-.42.82-1.02.61-.16 1.03-.47 1.03-.83" id="u"/><filter x="-161.8%" y="-161.8%" width="423.5%" height="423.5%" filterUnits="objectBoundingBox" id="t"><feOffset in="SourceAlpha" result="shadowOffsetOuter1"/><feGaussianBlur stdDeviation="2" in="shadowOffsetOuter1" result="shadowBlurOuter1"/><feColorMatrix values="0 0 0 0 1 0 0 0 0 1 0 0 0 0 1 0 0 0 0.8 0" in="shadowBlurOuter1"/></filter><path d="M100.6 96.73c-.15-.61-.46-1.03-.82-1.03-.37 0-.68.42-.83 1.03-.6.15-1.03.46-1.03.82 0 .37.42.68 1.03.83.15.6.46 1.03.83 1.03.36 0 .67-.42.82-1.03.61-.15 1.03-.46 1.03-.83 0-.36-.42-.67-1.03-.82z" id="w"/><filter x="-161.8%" y="-161.8%" width="423.5%" height="423.5%" filterUnits="objectBoundingBox" id="v"><feOffset in="SourceAlpha" result="shadowOffsetOuter1"/><feGaussianBlur stdDeviation="2" in="shadowOffsetOuter1" result="shadowBlurOuter1"/><feColorMatrix values="0 0 0 0 1 0 0 0 0 1 0 0 0 0 1 0 0 0 0.8 0" in="shadowBlurOuter1"/></filter><path d="M55.01 157.7c-.15-.6-.46-1.03-.83-1.03-.36 0-.67.42-.82 1.03-.6.15-1.03.46-1.03.83 0 .36.42.67 1.03.82.15.61.46 1.03.82 1.03.37 0 .68-.42.83-1.03.6-.15 1.03-.46 1.03-.82 0-.37-.42-.68-1.03-.83z" id="y"/><filter x="-161.8%" y="-161.8%" width="423.5%" height="423.5%" filterUnits="objectBoundingBox" id="x"><feOffset in="SourceAlpha" result="shadowOffsetOuter1"/><feGaussianBlur stdDeviation="2" in="shadowOffsetOuter1" result="shadowBlurOuter1"/><feColorMatrix values="0 0 0 0 1 0 0 0 0 1 0 0 0 0 1 0 0 0 0.8 0" in="shadowBlurOuter1"/></filter><path d="M147.08 17.5c-.28-1.1-.84-1.86-1.5-1.86-.64 0-1.2.76-1.48 1.85-1.1.28-1.85.84-1.85 1.5 0 .64.76 1.2 1.85 1.48.28 1.1.84 1.85 1.49 1.85s1.21-.76 1.49-1.85c1.09-.28 1.85-.84 1.85-1.49s-.76-1.21-1.85-1.49z" id="A"/><filter x="-89.9%" y="-89.9%" width="279.7%" height="279.7%" filterUnits="objectBoundingBox" id="z"><feOffset in="SourceAlpha" result="shadowOffsetOuter1"/><feGaussianBlur stdDeviation="2" in="shadowOffsetOuter1" result="shadowBlurOuter1"/><feColorMatrix values="0 0 0 0 1 0 0 0 0 1 0 0 0 0 1 0 0 0 0.8 0" in="shadowBlurOuter1"/></filter><path d="M189.92 109.18c0-.37-.42-.68-1.02-.83-.16-.6-.47-1.03-.83-1.03s-.67.42-.83 1.03c-.6.15-1.02.46-1.02.83 0 .36.42.67 1.02.82.16.6.47 1.03.83 1.03s.67-.42.83-1.03c.6-.15 1.02-.46 1.02-.82" id="C"/><filter x="-161.8%" y="-161.8%" width="423.5%" height="423.5%" filterUnits="objectBoundingBox" id="B"><feOffset in="SourceAlpha" result="shadowOffsetOuter1"/><feGaussianBlur stdDeviation="2" in="shadowOffsetOuter1" result="shadowBlurOuter1"/><feColorMatrix values="0 0 0 0 1 0 0 0 0 1 0 0 0 0 1 0 0 0 0.8 0" in="shadowBlurOuter1"/></filter><path d="M196.53 185.5c0-.22-.25-.4-.62-.5-.09-.36-.28-.62-.5-.62-.21 0-.4.26-.49.62-.36.1-.62.28-.62.5 0 .21.26.4.62.5.1.36.28.6.5.6.21 0 .4-.24.5-.6.36-.1.61-.29.61-.5" id="E"/><filter x="-269.6%" y="-269.6%" width="639.2%" height="639.2%" filterUnits="objectBoundingBox" id="D"><feOffset in="SourceAlpha" result="shadowOffsetOuter1"/><feGaussianBlur stdDeviation="2" in="shadowOffsetOuter1" result="shadowBlurOuter1"/><feColorMatrix values="0 0 0 0 1 0 0 0 0 1 0 0 0 0 1 0 0 0 0.8 0" in="shadowBlurOuter1"/></filter><path d="M163.65 192.15c0-.22-.25-.4-.61-.5-.1-.36-.28-.62-.5-.62-.22 0-.4.26-.5.62-.36.1-.61.28-.61.5 0 .21.25.4.62.5.09.36.27.6.5.6.2 0 .4-.24.49-.6.36-.1.61-.29.61-.5" id="G"/><filter x="-269.6%" y="-269.6%" width="639.2%" height="639.2%" filterUnits="objectBoundingBox" id="F"><feOffset in="SourceAlpha" result="shadowOffsetOuter1"/><feGaussianBlur stdDeviation="2" in="shadowOffsetOuter1" result="shadowBlurOuter1"/><feColorMatrix values="0 0 0 0 1 0 0 0 0 1 0 0 0 0 1 0 0 0 0.8 0" in="shadowBlurOuter1"/></filter><path d="M195.85 67.14c0-.22-.26-.4-.62-.5-.1-.36-.28-.62-.5-.62-.21 0-.4.26-.5.62-.36.1-.61.28-.61.5 0 .21.25.4.62.5.09.36.28.6.5.6.21 0 .4-.24.49-.6.36-.1.62-.29.62-.5" id="I"/><filter x="-269.6%" y="-269.6%" width="639.2%" height="639.2%" filterUnits="objectBoundingBox" id="H"><feOffset in="SourceAlpha" result="shadowOffsetOuter1"/><feGaussianBlur stdDeviation="2" in="shadowOffsetOuter1" result="shadowBlurOuter1"/><feColorMatrix values="0 0 0 0 1 0 0 0 0 1 0 0 0 0 1 0 0 0 0.8 0" in="shadowBlurOuter1"/></filter><path d="M107.57 163.58c0-.22-.26-.4-.62-.5-.1-.36-.28-.62-.5-.62-.21 0-.4.26-.5.62-.36.1-.6.28-.6.5 0 .21.24.4.6.5.1.36.29.6.5.6.22 0 .4-.24.5-.6.36-.1.62-.29.62-.5" id="K"/><filter x="-269.6%" y="-269.6%" width="639.2%" height="639.2%" filterUnits="objectBoundingBox" id="J"><feOffset in="SourceAlpha" result="shadowOffsetOuter1"/><feGaussianBlur stdDeviation="2" in="shadowOffsetOuter1" result="shadowBlurOuter1"/><feColorMatrix values="0 0 0 0 1 0 0 0 0 1 0 0 0 0 1 0 0 0 0.8 0" in="shadowBlurOuter1"/></filter><path d="M99.4 222.18c0-.22-.25-.4-.61-.5-.1-.36-.28-.61-.5-.61-.21 0-.4.25-.5.62-.36.09-.6.27-.6.5 0 .2.24.4.6.49.1.36.29.61.5.61.22 0 .4-.25.5-.61.36-.1.62-.28.62-.5" id="M"/><filter x="-269.6%" y="-269.6%" width="639.2%" height="639.2%" filterUnits="objectBoundingBox" id="L"><feOffset in="SourceAlpha" result="shadowOffsetOuter1"/><feGaussianBlur stdDeviation="2" in="shadowOffsetOuter1" result="shadowBlurOuter1"/><feColorMatrix values="0 0 0 0 1 0 0 0 0 1 0 0 0 0 1 0 0 0 0.8 0" in="shadowBlurOuter1"/></filter><path d="M44.51 104.97c0-.22-.25-.4-.62-.5-.09-.36-.27-.61-.5-.61-.21 0-.4.25-.49.61-.36.1-.62.28-.62.5 0 .22.26.4.62.5.1.36.28.61.5.61.22 0 .4-.25.5-.61.36-.1.61-.28.61-.5" id="O"/><filter x="-269.6%" y="-269.6%" width="639.2%" height="639.2%" filterUnits="objectBoundingBox" id="N"><feOffset in="SourceAlpha" result="shadowOffsetOuter1"/><feGaussianBlur stdDeviation="2" in="shadowOffsetOuter1" result="shadowBlurOuter1"/><feColorMatrix values="0 0 0 0 1 0 0 0 0 1 0 0 0 0 1 0 0 0 0.8 0" in="shadowBlurOuter1"/></filter><path d="M132.79 1.11c0-.22-.25-.4-.62-.5-.09-.36-.28-.61-.5-.61-.21 0-.4.25-.49.62-.36.09-.62.27-.62.5 0 .21.26.4.62.49.1.36.28.62.5.62.21 0 .4-.26.5-.62.36-.1.6-.28.6-.5" id="Q"/><filter x="-269.6%" y="-269.6%" width="639.2%" height="639.2%" filterUnits="objectBoundingBox" id="P"><feOffset in="SourceAlpha" result="shadowOffsetOuter1"/><feGaussianBlur stdDeviation="2" in="shadowOffsetOuter1" result="shadowBlurOuter1"/><feColorMatrix values="0 0 0 0 1 0 0 0 0 1 0 0 0 0 1 0 0 0 0.8 0" in="shadowBlurOuter1"/></filter><path d="M225.73 130.19c0-.22-.26-.4-.62-.5-.1-.36-.28-.61-.5-.61-.21 0-.4.25-.5.61-.36.1-.61.28-.61.5 0 .22.25.4.62.5.09.36.28.61.5.61.21 0 .4-.25.49-.61.36-.1.62-.28.62-.5" id="S"/><filter x="-269.6%" y="-269.6%" width="639.2%" height="639.2%" filterUnits="objectBoundingBox" id="R"><feOffset in="SourceAlpha" result="shadowOffsetOuter1"/><feGaussianBlur stdDeviation="2" in="shadowOffsetOuter1" result="shadowBlurOuter1"/><feColorMatrix values="0 0 0 0 1 0 0 0 0 1 0 0 0 0 1 0 0 0 0.8 0" in="shadowBlurOuter1"/></filter><path d="M129.14 69.74c0-.22-.25-.4-.62-.5-.09-.36-.27-.62-.5-.62-.2 0-.4.26-.49.62-.36.1-.61.28-.61.5 0 .22.25.4.61.5.1.36.28.61.5.61.22 0 .4-.25.5-.62.36-.09.61-.27.61-.5" id="U"/><filter x="-269.6%" y="-269.6%" width="639.2%" height="639.2%" filterUnits="objectBoundingBox" id="T"><feOffset in="SourceAlpha" result="shadowOffsetOuter1"/><feGaussianBlur stdDeviation="2" in="shadowOffsetOuter1" result="shadowBlurOuter1"/><feColorMatrix values="0 0 0 0 1 0 0 0 0 1 0 0 0 0 1 0 0 0 0.8 0" in="shadowBlurOuter1"/></filter><linearGradient x1="50%" y1="0%" x2="50%" y2="100%" id="X"><stop stop-color="#FAFAFA" stop-opacity=".33" offset="0%"/><stop stop-color="#F2F2F2" offset="100%"/></linearGradient><path d="M109.19 200.92c-.21-.85.1-41.56-.4-41.56s-1.68 40.71-1.89 41.56c-.84.2-1.42.64-1.42 1.14 0 .5.58.93 1.42 1.14.21.84.64 1.43 1.14 1.43.5 0 .94-.59 1.15-1.43.84-.2 1.42-.64 1.42-1.14 0-.5-.58-.93-1.42-1.14z" id="W"/><filter x="-58.4%" y="-6.6%" width="216.8%" height="113.3%" filterUnits="objectBoundingBox" id="V"><feOffset in="SourceAlpha" result="shadowOffsetOuter1"/><feGaussianBlur stdDeviation="1" in="shadowOffsetOuter1" result="shadowBlurOuter1"/><feColorMatrix values="0 0 0 0 1 0 0 0 0 1 0 0 0 0 1 0 0 0 0.8 0" in="shadowBlurOuter1"/></filter></defs><g transform="translate(10 10)" fill="none" fill-rule="evenodd"><mask id="b" fill="#fff"><use xlink:href="#a"/></mask><use fill="#3B3656" xlink:href="#a"/><circle stroke-opacity=".05" stroke="#033443" stroke-width="10" cx="110" cy="110" r="115"/><g mask="url(#b)"><path d="M79.37 136.88c28.75 0 52.05-23.23 52.05-51.9 0-28.66-23.3-51.9-52.05-51.9-28.74 0-52.04 23.24-52.04 51.9" stroke="url(#e)" stroke-width="9" stroke-linecap="round" stroke-linejoin="round" transform="translate(30 25)"/><path d="M60.4 130.23a3.55 3.55 0 0 1-6.14 0l-9.71-16.77a3.55 3.55 0 0 1 3.07-5.32h19.42a3.55 3.55 0 0 1 3.06 5.32l-9.7 16.77z" fill="#6BB253"/></g><g mask="url(#b)"><path d="M94.43 107.53V94.1c0-7.91 6.43-14.33 14.37-14.33 7.94 0 14.37 6.42 14.37 14.33v15.23" stroke="#FFF" stroke-width="5" stroke-linecap="round" stroke-linejoin="round"/><path d="M127.34 101.25c2.8 0 5.08 2.27 5.08 5.07v25.72c0 2.8-2.27 5.06-5.08 5.06H90.26a5.07 5.07 0 0 1-5.08-5.06v-25.72c0-2.8 2.27-5.07 5.08-5.07h37.08z" fill="#FFF"/></g><g mask="url(#b)"><g transform="rotate(128 121.07 101.35)"><use fill="#000" filter="url(#f)" xlink:href="#g"/><use fill="#F2F2F2" xlink:href="#g"/></g><g transform="rotate(128 121.07 101.35)"><use fill="#000" filter="url(#h)" xlink:href="#i"/><use fill="#F2F2F2" xlink:href="#i"/></g><g transform="rotate(128 121.07 101.35)"><use fill="#000" filter="url(#j)" xlink:href="#k"/><use fill="#F2F2F2" xlink:href="#k"/></g><g transform="rotate(128 121.07 101.35)"><use fill="#000" filter="url(#l)" xlink:href="#m"/><use fill="#F2F2F2" xlink:href="#m"/></g><g transform="rotate(128 121.07 101.35)"><use fill="#000" filter="url(#n)" xlink:href="#o"/><use fill="#F2F2F2" xlink:href="#o"/></g><g transform="rotate(128 121.07 101.35)"><use fill="#000" filter="url(#p)" xlink:href="#q"/><use fill="#F2F2F2" xlink:href="#q"/></g><g transform="rotate(128 121.07 101.35)"><use fill="#000" filter="url(#r)" xlink:href="#s"/><use fill="#F2F2F2" xlink:href="#s"/></g><g transform="rotate(128 121.07 101.35)"><use fill="#000" filter="url(#t)" xlink:href="#u"/><use fill="#F2F2F2" xlink:href="#u"/></g><g transform="rotate(128 121.07 101.35)"><use fill="#000" filter="url(#v)" xlink:href="#w"/><use fill="#F2F2F2" xlink:href="#w"/></g><g transform="rotate(128 121.07 101.35)"><use fill="#000" filter="url(#x)" xlink:href="#y"/><use fill="#F2F2F2" xlink:href="#y"/></g><g transform="rotate(128 121.07 101.35)"><use fill="#000" filter="url(#z)" xlink:href="#A"/><use fill="#F2F2F2" xlink:href="#A"/></g><g transform="rotate(180 130.87 129.25)"><use fill="#000" filter="url(#B)" xlink:href="#C"/><use fill="#F2F2F2" xlink:href="#C"/></g><g opacity=".6"><g transform="rotate(128 121.07 101.35)"><use fill="#000" filter="url(#D)" xlink:href="#E"/><use fill="#F2F2F2" xlink:href="#E"/></g><g transform="rotate(128 121.07 101.35)"><use fill="#000" filter="url(#F)" xlink:href="#G"/><use fill="#F2F2F2" xlink:href="#G"/></g><g transform="rotate(128 121.07 101.35)"><use fill="#000" filter="url(#H)" xlink:href="#I"/><use fill="#F2F2F2" xlink:href="#I"/></g><g transform="rotate(128 121.07 101.35)"><use fill="#000" filter="url(#J)" xlink:href="#K"/><use fill="#F2F2F2" xlink:href="#K"/></g><g transform="rotate(128 121.07 101.35)"><use fill="#000" filter="url(#L)" xlink:href="#M"/><use fill="#F2F2F2" xlink:href="#M"/></g><g transform="rotate(128 121.07 101.35)"><use fill="#000" filter="url(#N)" xlink:href="#O"/><use fill="#F2F2F2" xlink:href="#O"/></g><g transform="rotate(128 121.07 101.35)"><use fill="#000" filter="url(#P)" xlink:href="#Q"/><use fill="#F2F2F2" xlink:href="#Q"/></g><g transform="rotate(128 121.07 101.35)"><use fill="#000" filter="url(#R)" xlink:href="#S"/><use fill="#F2F2F2" xlink:href="#S"/></g><g transform="rotate(128 121.07 101.35)"><use fill="#000" filter="url(#T)" xlink:href="#U"/><use fill="#F2F2F2" xlink:href="#U"/></g></g><g transform="rotate(61 206.1 75.65)"><use fill="#000" filter="url(#V)" xlink:href="#W"/><use fill="url(#X)" xlink:href="#W"/></g></g></g></svg>
