<svg xmlns:xlink="http://www.w3.org/1999/xlink" data-v-6bb3a826="" aria-hidden="true" focusable="false" data-prefix="far" data-icon="magnifying-glass" role="img" xmlns="http://www.w3.org/2000/svg" viewBox="0 0 512 512" class="search-bar__icon svg-inline--fa fa-magnifying-glass fa-w-16" width="512"  height="512" ><path data-v-6bb3a826="" fill="#A6A6A6" d="M368 208A160 160 0 1 0 48 208a160 160 0 1 0 320 0zM337.1 371.1C301.7 399.2 256.8 416 208 416C93.1 416 0 322.9 0 208S93.1 0 208 0S416 93.1 416 208c0 48.8-16.8 93.7-44.9 129.1L505 471c9.4 9.4 9.4 24.6 0 33.9s-24.6 9.4-33.9 0L337.1 371.1z" class=""></path></svg>