<svg width="18" height="18" viewBox="0 0 18 18" fill="none" xmlns="http://www.w3.org/2000/svg">
<path d="M14.7419 10.0435H16.3043C16.4888 10.0435 16.6658 9.97019 16.7962 9.83973C16.9267 9.70927 17 9.53232 17 9.34783V8.65217C17 8.46768 16.9267 8.29073 16.7962 8.16027C16.6658 8.02981 16.4888 7.95652 16.3043 7.95652H14.7412C14.5994 7.25141 14.3655 6.56799 14.0456 5.92383L15.151 4.81913C15.2814 4.68868 15.3546 4.51177 15.3546 4.3273C15.3546 4.14284 15.2814 3.96593 15.151 3.83548L14.1645 2.85183C14.0341 2.72141 13.8572 2.64815 13.6727 2.64815C13.4882 2.64815 13.3113 2.72141 13.1809 2.85183L12.0748 3.95722C11.4312 3.63717 10.7482 3.40327 10.0435 3.26157V1.69565C10.0435 1.51115 9.97019 1.33421 9.83973 1.20375C9.70927 1.07329 9.53232 1 9.34783 1H8.65217C8.46768 1 8.29073 1.07329 8.16027 1.20375C8.02981 1.33421 7.95652 1.51115 7.95652 1.69565V3.26017C7.2516 3.40188 6.56839 3.63578 5.92452 3.95583L4.81843 2.85183C4.68798 2.72141 4.51107 2.64815 4.32661 2.64815C4.14215 2.64815 3.96524 2.72141 3.83478 2.85183L2.85043 3.83617C2.72002 3.96663 2.64676 4.14354 2.64676 4.328C2.64676 4.51246 2.72002 4.68937 2.85043 4.81983L3.95652 5.92522C3.6368 6.56923 3.40292 7.25238 3.26087 7.95722H1.69565C1.51115 7.95722 1.33421 8.03051 1.20375 8.16097C1.07329 8.29143 1 8.46837 1 8.65287V9.34852C1 9.53302 1.07329 9.70996 1.20375 9.84042C1.33421 9.97088 1.51115 10.0442 1.69565 10.0442H3.25809C3.40014 10.749 3.63402 11.4322 3.95374 12.0762L2.84765 13.1823C2.71724 13.3127 2.64397 13.4896 2.64397 13.6741C2.64397 13.8585 2.71724 14.0355 2.84765 14.1659L3.83478 15.1496C3.96524 15.28 4.14215 15.3532 4.32661 15.3532C4.51107 15.3532 4.68798 15.28 4.81843 15.1496L5.92383 14.0435C6.56799 14.3634 7.25141 14.5973 7.95652 14.7391V16.3043C7.95652 16.4888 8.02981 16.6658 8.16027 16.7962C8.29073 16.9267 8.46768 17 8.65217 17H9.34783C9.53232 17 9.70927 16.9267 9.83973 16.7962C9.97019 16.6658 10.0435 16.4888 10.0435 16.3043V14.7426C10.7481 14.6007 11.4311 14.3668 12.0748 14.047L13.1816 15.1523C13.312 15.2828 13.4889 15.356 13.6734 15.356C13.8579 15.356 14.0348 15.2828 14.1652 15.1523L15.1489 14.1687C15.2793 14.0382 15.3525 13.8613 15.3525 13.6769C15.3525 13.4924 15.2793 13.3155 15.1489 13.185L14.0435 12.079C14.3644 11.434 14.5993 10.7496 14.7419 10.0435V10.0435Z" stroke="#788699" stroke-width="1.2" stroke-linecap="round" stroke-linejoin="round"/>
<path d="M6 9C6 9.79565 6.31607 10.5587 6.87868 11.1213C7.44129 11.6839 8.20435 12 9 12C9.79565 12 10.5587 11.6839 11.1213 11.1213C11.6839 10.5587 12 9.79565 12 9C12 8.20435 11.6839 7.44129 11.1213 6.87868C10.5587 6.31607 9.79565 6 9 6C8.20435 6 7.44129 6.31607 6.87868 6.87868C6.31607 7.44129 6 8.20435 6 9V9Z" stroke="#788699" stroke-width="1.2" stroke-linecap="round" stroke-linejoin="round"/>
</svg>
